<mxfile host="app.diagrams.net" modified="2022-08-16T06:49:34.738Z" agent="5.0 (Macintosh; Intel Mac OS X 10_15_7) AppleWebKit/537.36 (KHTML, like Gecko) Chrome/104.0.0.0 Safari/537.36" etag="dYHR5LfDICM48VXuvOKk" version="20.2.3" type="github">
  <diagram id="DfTjimNmGWjXuFLKflu0" name="第 1 页">
    <mxGraphModel dx="788" dy="512" grid="1" gridSize="10" guides="1" tooltips="1" connect="1" arrows="1" fold="1" page="1" pageScale="1" pageWidth="827" pageHeight="1169" math="0" shadow="0">
      <root>
        <mxCell id="0" />
        <mxCell id="1" parent="0" />
        <mxCell id="pbP9i_9f12Q9x8AdxTxX-3" style="edgeStyle=orthogonalEdgeStyle;rounded=0;orthogonalLoop=1;jettySize=auto;html=1;fontSize=18;fontColor=#5C5C5C;strokeColor=#006658;fillColor=#21C0A5;" edge="1" parent="1">
          <mxGeometry relative="1" as="geometry">
            <mxPoint x="150" y="240" as="targetPoint" />
            <mxPoint x="150" y="90.5" as="sourcePoint" />
          </mxGeometry>
        </mxCell>
        <mxCell id="pbP9i_9f12Q9x8AdxTxX-4" value="登录接口获取token" style="edgeLabel;html=1;align=center;verticalAlign=middle;resizable=0;points=[];fontSize=18;fontColor=#5C5C5C;" vertex="1" connectable="0" parent="pbP9i_9f12Q9x8AdxTxX-3">
          <mxGeometry x="-0.1167" y="-2" relative="1" as="geometry">
            <mxPoint x="12" as="offset" />
          </mxGeometry>
        </mxCell>
        <mxCell id="pbP9i_9f12Q9x8AdxTxX-1" value="&lt;font style=&quot;font-size: 18px;&quot;&gt;登录&lt;/font&gt;" style="rounded=1;whiteSpace=wrap;html=1;fontColor=#5C5C5C;strokeColor=#006658;fillColor=#21C0A5;" vertex="1" parent="1">
          <mxGeometry x="100" y="40" width="110" height="40" as="geometry" />
        </mxCell>
        <mxCell id="pbP9i_9f12Q9x8AdxTxX-2" value="&lt;font style=&quot;font-size: 18px;&quot;&gt;获取用户信息&lt;/font&gt;" style="rounded=1;whiteSpace=wrap;html=1;fontColor=#5C5C5C;strokeColor=#006658;fillColor=#21C0A5;" vertex="1" parent="1">
          <mxGeometry x="60" y="410" width="150" height="40" as="geometry" />
        </mxCell>
        <mxCell id="pbP9i_9f12Q9x8AdxTxX-7" value="" style="edgeStyle=segmentEdgeStyle;endArrow=classic;html=1;rounded=0;fontSize=18;fontColor=#5C5C5C;strokeColor=#006658;fillColor=#21C0A5;" edge="1" parent="1">
          <mxGeometry width="50" height="50" relative="1" as="geometry">
            <mxPoint x="250" y="160" as="sourcePoint" />
            <mxPoint x="300" y="70" as="targetPoint" />
          </mxGeometry>
        </mxCell>
        <mxCell id="pbP9i_9f12Q9x8AdxTxX-9" value="&lt;font style=&quot;font-size: 14px;&quot;&gt;登录失败&lt;/font&gt;" style="edgeLabel;html=1;align=center;verticalAlign=middle;resizable=0;points=[];fontSize=18;fontColor=#5C5C5C;" vertex="1" connectable="0" parent="pbP9i_9f12Q9x8AdxTxX-7">
          <mxGeometry x="0.45" y="-1" relative="1" as="geometry">
            <mxPoint as="offset" />
          </mxGeometry>
        </mxCell>
        <mxCell id="pbP9i_9f12Q9x8AdxTxX-8" value="" style="endArrow=classic;html=1;rounded=0;fontSize=18;fontColor=#5C5C5C;strokeColor=#006658;fillColor=#21C0A5;" edge="1" parent="1">
          <mxGeometry width="50" height="50" relative="1" as="geometry">
            <mxPoint x="290" y="70.5" as="sourcePoint" />
            <mxPoint x="220" y="70" as="targetPoint" />
          </mxGeometry>
        </mxCell>
        <mxCell id="pbP9i_9f12Q9x8AdxTxX-10" value="&lt;font style=&quot;font-size: 16px;&quot;&gt;token存入cookie中（js-cookie）&lt;/font&gt;" style="text;html=1;strokeColor=none;fillColor=none;align=center;verticalAlign=middle;whiteSpace=wrap;rounded=0;fontSize=14;fontColor=#5C5C5C;" vertex="1" parent="1">
          <mxGeometry x="160" y="190" width="150" height="30" as="geometry" />
        </mxCell>
        <mxCell id="pbP9i_9f12Q9x8AdxTxX-15" style="edgeStyle=orthogonalEdgeStyle;rounded=0;orthogonalLoop=1;jettySize=auto;html=1;exitX=0.5;exitY=1;exitDx=0;exitDy=0;fontSize=16;fontColor=#000000;strokeColor=#006658;fillColor=#21C0A5;" edge="1" parent="1" source="pbP9i_9f12Q9x8AdxTxX-11">
          <mxGeometry relative="1" as="geometry">
            <mxPoint x="150" y="400" as="targetPoint" />
            <Array as="points">
              <mxPoint x="150" y="400" />
            </Array>
          </mxGeometry>
        </mxCell>
        <mxCell id="pbP9i_9f12Q9x8AdxTxX-11" value="&lt;span style=&quot;color: rgb(51, 51, 51); font-family: -apple-system, system-ui, &amp;quot;Segoe UI&amp;quot;, Roboto, Ubuntu, Cantarell, &amp;quot;Noto Sans&amp;quot;, sans-serif, &amp;quot;system-ui&amp;quot;, &amp;quot;Helvetica Neue&amp;quot;, &amp;quot;PingFang SC&amp;quot;, &amp;quot;Hiragino Sans GB&amp;quot;, &amp;quot;Microsoft YaHei&amp;quot;, Arial;&quot;&gt;在全局钩子&lt;/span&gt;&lt;code style=&quot;font-family: Menlo, Monaco, Consolas, &amp;quot;Courier New&amp;quot;, monospace; font-size: 0.87em; word-break: break-word; border-radius: 2px; overflow-x: auto; padding: 0.065em 0.4em;&quot;&gt;&lt;font color=&quot;#660000&quot;&gt;&lt;b&gt;router.beforeEach&lt;/b&gt;&lt;/font&gt;&lt;/code&gt;&lt;span style=&quot;color: rgb(51, 51, 51); font-family: -apple-system, system-ui, &amp;quot;Segoe UI&amp;quot;, Roboto, Ubuntu, Cantarell, &amp;quot;Noto Sans&amp;quot;, sans-serif, &amp;quot;system-ui&amp;quot;, &amp;quot;Helvetica Neue&amp;quot;, &amp;quot;PingFang SC&amp;quot;, &amp;quot;Hiragino Sans GB&amp;quot;, &amp;quot;Microsoft YaHei&amp;quot;, Arial;&quot;&gt;中拦截路由，判断是否已获得token&lt;/span&gt;" style="rounded=1;whiteSpace=wrap;html=1;fontSize=16;fontColor=#5C5C5C;strokeColor=#006658;fillColor=#21C0A5;align=left;" vertex="1" parent="1">
          <mxGeometry x="20" y="250" width="260" height="70" as="geometry" />
        </mxCell>
        <mxCell id="pbP9i_9f12Q9x8AdxTxX-13" value="&lt;font color=&quot;#000000&quot;&gt;permission.js文件&lt;/font&gt;" style="text;html=1;strokeColor=none;fillColor=none;align=center;verticalAlign=middle;whiteSpace=wrap;rounded=0;labelBackgroundColor=none;fontSize=16;fontColor=#660000;" vertex="1" parent="1">
          <mxGeometry x="300" y="270" width="130" height="30" as="geometry" />
        </mxCell>
      </root>
    </mxGraphModel>
  </diagram>
</mxfile>
